<mxfile host="Electron" agent="Mozilla/5.0 (Windows NT 10.0; Win64; x64) AppleWebKit/537.36 (KHTML, like Gecko) draw.io/24.7.17 Chrome/128.0.6613.36 Electron/32.0.1 Safari/537.36" version="24.7.17">
  <diagram name="Страница — 1" id="CFEEm7b2cFMSvps_06dL">
    <mxGraphModel dx="1744" dy="1024" grid="1" gridSize="10" guides="1" tooltips="1" connect="1" arrows="1" fold="1" page="1" pageScale="1" pageWidth="1169" pageHeight="1654" math="0" shadow="0">
      <root>
        <mxCell id="0" />
        <mxCell id="1" parent="0" />
        <mxCell id="nL6xliVxW3JrBhwddds0-3" style="edgeStyle=orthogonalEdgeStyle;rounded=0;orthogonalLoop=1;jettySize=auto;html=1;" edge="1" parent="1" source="nL6xliVxW3JrBhwddds0-1" target="nL6xliVxW3JrBhwddds0-2">
          <mxGeometry relative="1" as="geometry" />
        </mxCell>
        <mxCell id="nL6xliVxW3JrBhwddds0-1" value="&lt;font color=&quot;#ff3333&quot;&gt;Start&lt;/font&gt;" style="ellipse;whiteSpace=wrap;html=1;" vertex="1" parent="1">
          <mxGeometry x="490" y="50" width="120" height="80" as="geometry" />
        </mxCell>
        <mxCell id="nL6xliVxW3JrBhwddds0-5" style="edgeStyle=orthogonalEdgeStyle;rounded=0;orthogonalLoop=1;jettySize=auto;html=1;entryX=0.5;entryY=0;entryDx=0;entryDy=0;" edge="1" parent="1" source="nL6xliVxW3JrBhwddds0-2">
          <mxGeometry relative="1" as="geometry">
            <mxPoint x="550" y="260" as="targetPoint" />
          </mxGeometry>
        </mxCell>
        <mxCell id="nL6xliVxW3JrBhwddds0-2" value="epsilon = 0.0001;&lt;div&gt;n=1;&lt;/div&gt;&lt;div&gt;sum =0.0&lt;/div&gt;&lt;div&gt;a_n;&lt;/div&gt;" style="rounded=0;whiteSpace=wrap;html=1;" vertex="1" parent="1">
          <mxGeometry x="490" y="160" width="120" height="60" as="geometry" />
        </mxCell>
        <mxCell id="nL6xliVxW3JrBhwddds0-12" style="edgeStyle=orthogonalEdgeStyle;rounded=0;orthogonalLoop=1;jettySize=auto;html=1;" edge="1" parent="1" source="nL6xliVxW3JrBhwddds0-7" target="nL6xliVxW3JrBhwddds0-8">
          <mxGeometry relative="1" as="geometry" />
        </mxCell>
        <mxCell id="nL6xliVxW3JrBhwddds0-7" value="a=n^3" style="rounded=0;whiteSpace=wrap;html=1;" vertex="1" parent="1">
          <mxGeometry x="502.5" y="320" width="95" height="50" as="geometry" />
        </mxCell>
        <mxCell id="nL6xliVxW3JrBhwddds0-13" style="edgeStyle=orthogonalEdgeStyle;rounded=0;orthogonalLoop=1;jettySize=auto;html=1;entryX=0.5;entryY=0;entryDx=0;entryDy=0;" edge="1" parent="1" source="nL6xliVxW3JrBhwddds0-8" target="nL6xliVxW3JrBhwddds0-10">
          <mxGeometry relative="1" as="geometry" />
        </mxCell>
        <mxCell id="nL6xliVxW3JrBhwddds0-8" value="b=3*n-3" style="rounded=0;whiteSpace=wrap;html=1;" vertex="1" parent="1">
          <mxGeometry x="502.5" y="400" width="95" height="50" as="geometry" />
        </mxCell>
        <mxCell id="nL6xliVxW3JrBhwddds0-11" style="edgeStyle=orthogonalEdgeStyle;rounded=0;orthogonalLoop=1;jettySize=auto;html=1;" edge="1" parent="1" source="nL6xliVxW3JrBhwddds0-9" target="nL6xliVxW3JrBhwddds0-7">
          <mxGeometry relative="1" as="geometry" />
        </mxCell>
        <mxCell id="nL6xliVxW3JrBhwddds0-9" value="do" style="rounded=1;whiteSpace=wrap;html=1;" vertex="1" parent="1">
          <mxGeometry x="525" y="260" width="50" height="30" as="geometry" />
        </mxCell>
        <mxCell id="nL6xliVxW3JrBhwddds0-15" style="edgeStyle=orthogonalEdgeStyle;rounded=0;orthogonalLoop=1;jettySize=auto;html=1;" edge="1" parent="1" source="nL6xliVxW3JrBhwddds0-10" target="nL6xliVxW3JrBhwddds0-14">
          <mxGeometry relative="1" as="geometry" />
        </mxCell>
        <mxCell id="nL6xliVxW3JrBhwddds0-10" value="c=a/factorial (b)" style="shape=process;whiteSpace=wrap;html=1;backgroundOutline=1;" vertex="1" parent="1">
          <mxGeometry x="495" y="480" width="110" height="50" as="geometry" />
        </mxCell>
        <mxCell id="nL6xliVxW3JrBhwddds0-17" value="" style="edgeStyle=orthogonalEdgeStyle;rounded=0;orthogonalLoop=1;jettySize=auto;html=1;" edge="1" parent="1" source="nL6xliVxW3JrBhwddds0-14" target="nL6xliVxW3JrBhwddds0-16">
          <mxGeometry relative="1" as="geometry" />
        </mxCell>
        <mxCell id="nL6xliVxW3JrBhwddds0-14" value="a_n=1.0/c" style="rounded=0;whiteSpace=wrap;html=1;" vertex="1" parent="1">
          <mxGeometry x="502.5" y="560" width="95" height="50" as="geometry" />
        </mxCell>
        <mxCell id="nL6xliVxW3JrBhwddds0-21" style="edgeStyle=orthogonalEdgeStyle;rounded=0;orthogonalLoop=1;jettySize=auto;html=1;entryX=0.5;entryY=0;entryDx=0;entryDy=0;" edge="1" parent="1" source="nL6xliVxW3JrBhwddds0-16" target="nL6xliVxW3JrBhwddds0-18">
          <mxGeometry relative="1" as="geometry" />
        </mxCell>
        <mxCell id="nL6xliVxW3JrBhwddds0-16" value="sum += a_n" style="rounded=0;whiteSpace=wrap;html=1;" vertex="1" parent="1">
          <mxGeometry x="502.5" y="640" width="95" height="50" as="geometry" />
        </mxCell>
        <mxCell id="nL6xliVxW3JrBhwddds0-19" style="edgeStyle=orthogonalEdgeStyle;rounded=0;orthogonalLoop=1;jettySize=auto;html=1;entryX=0;entryY=0.5;entryDx=0;entryDy=0;" edge="1" parent="1" source="nL6xliVxW3JrBhwddds0-18" target="nL6xliVxW3JrBhwddds0-9">
          <mxGeometry relative="1" as="geometry">
            <Array as="points">
              <mxPoint x="440" y="765" />
              <mxPoint x="440" y="275" />
            </Array>
          </mxGeometry>
        </mxCell>
        <mxCell id="nL6xliVxW3JrBhwddds0-20" value="true" style="edgeLabel;html=1;align=center;verticalAlign=middle;resizable=0;points=[];" vertex="1" connectable="0" parent="nL6xliVxW3JrBhwddds0-19">
          <mxGeometry x="-0.9502" y="-1" relative="1" as="geometry">
            <mxPoint as="offset" />
          </mxGeometry>
        </mxCell>
        <mxCell id="nL6xliVxW3JrBhwddds0-23" style="edgeStyle=orthogonalEdgeStyle;rounded=0;orthogonalLoop=1;jettySize=auto;html=1;" edge="1" parent="1" source="nL6xliVxW3JrBhwddds0-18" target="nL6xliVxW3JrBhwddds0-22">
          <mxGeometry relative="1" as="geometry" />
        </mxCell>
        <mxCell id="nL6xliVxW3JrBhwddds0-18" value="|a_n|&amp;gt;=epsilon?" style="rhombus;whiteSpace=wrap;html=1;" vertex="1" parent="1">
          <mxGeometry x="473.13" y="720" width="153.75" height="90" as="geometry" />
        </mxCell>
        <mxCell id="nL6xliVxW3JrBhwddds0-25" style="edgeStyle=orthogonalEdgeStyle;rounded=0;orthogonalLoop=1;jettySize=auto;html=1;" edge="1" parent="1" source="nL6xliVxW3JrBhwddds0-22" target="nL6xliVxW3JrBhwddds0-24">
          <mxGeometry relative="1" as="geometry" />
        </mxCell>
        <mxCell id="nL6xliVxW3JrBhwddds0-22" value="Sum equals:" style="shape=parallelogram;perimeter=parallelogramPerimeter;whiteSpace=wrap;html=1;fixedSize=1;" vertex="1" parent="1">
          <mxGeometry x="486.26" y="840" width="127.5" height="40" as="geometry" />
        </mxCell>
        <mxCell id="nL6xliVxW3JrBhwddds0-24" value="&lt;font color=&quot;#ff3333&quot;&gt;Start&lt;/font&gt;" style="ellipse;whiteSpace=wrap;html=1;" vertex="1" parent="1">
          <mxGeometry x="490" y="910" width="120" height="80" as="geometry" />
        </mxCell>
      </root>
    </mxGraphModel>
  </diagram>
</mxfile>
